<svg width="30" height="26" viewBox="0 0 30 26" fill="none" xmlns="http://www.w3.org/2000/svg">
<path opacity="0.945" fill-rule="evenodd" clip-rule="evenodd" d="M5.2504 0.019506C5.91626 -0.0586933 6.51025 0.0982325 7.03237 0.490283C7.62412 1.03177 8.14108 1.62809 8.58334 2.27924C9.00719 3.02265 9.4142 3.77587 9.80432 4.53897C15.9421 4.59126 22.08 4.62264 28.218 4.63313C29.1842 4.75716 29.7672 5.26981 29.967 6.171C30.011 10.4812 30.011 14.7914 29.967 19.1017C29.7597 19.8846 29.2428 20.3764 28.416 20.5768C25.9521 20.6187 23.4881 20.6187 21.0241 20.5768C20.589 20.292 20.49 19.9258 20.7271 19.4783C20.8314 19.3816 20.9524 19.3083 21.0901 19.2586C23.4221 19.2377 25.7541 19.2167 28.086 19.1958C28.241 19.1741 28.362 19.1009 28.449 18.9761C28.493 15.0635 28.493 11.1508 28.449 7.23809C25.3141 9.59198 22.1791 11.9459 19.0442 14.2998C17.9715 15.0205 16.9155 14.9996 15.8762 14.237C13.6323 12.5631 11.3883 10.8893 9.14433 9.21536C8.97234 9.09371 8.85136 8.93678 8.78134 8.74458C8.37974 8.97225 7.97272 9.19195 7.56036 9.40367C7.01435 9.83597 6.80533 10.3904 6.93337 11.0671C6.96861 11.335 7.05659 11.5861 7.19737 11.8203C8.27533 13.5779 9.35335 15.3355 10.4313 17.093C10.8742 17.6176 11.4462 17.9315 12.1473 18.0346C12.4604 17.9644 12.7574 17.8493 13.0383 17.6894C14.9926 16.3097 16.7196 16.5294 18.2192 18.3484C19.0017 19.3762 19.6837 20.4642 20.2651 21.6125C20.6035 22.3205 20.6914 23.0528 20.5291 23.8095C20.3841 24.2226 20.1091 24.526 19.7042 24.7196C16.6979 26.3385 13.6399 26.4222 10.5303 24.9707C8.71461 24.0184 7.2076 22.7316 6.00939 21.1103C4.56817 18.8713 3.16018 16.6116 1.78546 14.3311C0.360336 11.927 -0.211656 9.35346 0.0694857 6.61039C0.616089 3.55731 2.34306 1.36031 5.2504 0.019506ZM5.64639 1.40045C6.02846 1.54317 6.34743 1.77333 6.60338 2.09093C7.37708 3.1019 8.01509 4.1899 8.51734 5.35498C8.78121 5.93712 8.80325 6.52295 8.58334 7.11255C7.89616 7.5807 7.1812 8.00967 6.43838 8.39935C5.48885 9.35672 5.19186 10.4761 5.54739 11.7576C5.62098 12.023 5.73094 12.2741 5.87739 12.5108C6.97739 14.3102 8.07733 16.1096 9.17733 17.9091C10.225 19.2176 11.578 19.6465 13.2363 19.1958C13.8774 18.8282 14.5374 18.4934 15.2162 18.1915C15.6116 18.1564 15.9635 18.261 16.2722 18.5054C17.3757 19.5764 18.2447 20.8004 18.8792 22.1774C19.0621 22.5589 19.1281 22.9565 19.0772 23.3701C16.7097 24.8191 14.2348 24.9969 11.6523 23.9036C9.79277 22.972 8.26378 21.6852 7.06537 20.0432C5.74539 17.9091 4.42541 15.7749 3.10543 13.6407C2.27353 12.2086 1.74553 10.6812 1.52146 9.05843C1.17169 5.64329 2.54666 3.09064 5.64639 1.40045ZM10.2003 6.04546C16.0083 6.03498 21.8162 6.04546 27.624 6.07684C24.387 8.507 21.131 10.9132 17.8562 13.2954C17.5601 13.4234 17.2741 13.4025 16.9982 13.2327C14.5908 11.4557 12.1928 9.66674 9.80432 7.8658C10.1707 7.30181 10.3027 6.69501 10.2003 6.04546Z" fill="#0094FF"/>
</svg>
