<svg width="27" height="28" viewBox="0 0 27 28" fill="none" xmlns="http://www.w3.org/2000/svg">
<path d="M21.6896 27.4658C21.3865 27.3497 21.1156 27.1175 19.7871 25.8083L18.2393 24.2798L17.4331 24.6861C16.1304 25.3375 14.9759 25.6084 13.4991 25.6084C12.996 25.6084 12.364 25.5632 12.0415 25.5116C8.80401 24.957 6.10178 22.6546 5.0828 19.5912C4.71519 18.482 4.63135 17.966 4.63135 16.7407C4.63135 15.5153 4.71519 14.9994 5.0828 13.8901C6.53388 9.53039 11.1064 7.01518 15.6144 8.09865C18.4908 8.78872 20.8835 10.9557 21.8766 13.7611C22.2443 14.8059 22.3603 15.5153 22.3603 16.7407C22.3603 17.6306 22.3281 17.9596 22.212 18.5142C22.0379 19.3397 21.709 20.2426 21.322 20.952L21.0318 21.4938L22.5409 23.0158C24.2758 24.7635 24.3596 24.8925 24.3661 25.6729C24.3661 26.4597 23.9985 27.053 23.2826 27.4271C22.8827 27.6334 22.154 27.6528 21.6896 27.4658ZM22.7795 26.0792C22.8569 26.0147 22.9343 25.8534 22.9601 25.718L22.9988 25.4729L21.5864 24.0541L20.174 22.6417L19.7871 23.0287L19.4001 23.4156L20.7932 24.8022C22.083 26.0856 22.1991 26.1888 22.4119 26.1888C22.5409 26.1888 22.7022 26.1372 22.7795 26.0792ZM14.8018 24.0928C17.6395 23.6027 19.9935 21.4357 20.7222 18.6625C21.8444 14.3802 19.0519 10.0657 14.7051 9.35626C14.1891 9.27242 12.809 9.27242 12.2931 9.35626C9.28771 9.8464 6.85634 12.1423 6.20496 15.1154C5.29562 19.2559 8.01076 23.3382 12.1641 24.0928C12.8026 24.2089 14.144 24.2089 14.8018 24.0928Z" fill="#573CFF"/>
<path d="M8.95226 21.5232C8.58466 21.3619 8.51371 21.2136 8.52016 20.6719C8.55241 19.137 9.41661 17.6278 10.7839 16.7378C10.9838 16.6024 11.1579 16.4863 11.1708 16.4799C11.1837 16.467 11.0547 16.3057 10.8806 16.1123C9.08125 14.1452 10.0228 10.9786 12.6025 10.295C13.0475 10.1725 13.9504 10.1725 14.3954 10.295C16.6011 10.8819 17.7103 13.3778 16.6398 15.377C16.5301 15.5899 16.2915 15.9252 16.1174 16.1123C15.9433 16.3057 15.8143 16.467 15.8272 16.4799C15.8401 16.4928 16.0142 16.6024 16.2077 16.7249C17.0009 17.228 17.6007 17.9245 18.0199 18.8145C18.323 19.453 18.4649 20.0205 18.4714 20.6783C18.4778 21.104 18.4585 21.1878 18.3359 21.3232C18.1102 21.5619 17.8135 21.6393 17.5491 21.5296C17.1944 21.3748 17.1235 21.2394 17.0461 20.6074C17.0138 20.2849 16.9429 19.9044 16.8913 19.7625C16.5108 18.6726 15.6853 17.86 14.5954 17.4795C13.9762 17.2667 12.9959 17.2731 12.3639 17.4988C11.2933 17.8793 10.4872 18.692 10.1067 19.7625C10.0551 19.9044 9.98414 20.2849 9.9519 20.6074C9.87451 21.2394 9.80357 21.3748 9.45531 21.5232C9.20378 21.6328 9.19734 21.6328 8.95226 21.5232ZM14.4019 15.6737C14.8275 15.4738 15.1951 15.1191 15.4209 14.6805C15.5756 14.3968 15.595 14.2807 15.595 13.7454C15.595 13.0102 15.4531 12.6619 14.9694 12.1847C14.5373 11.7655 14.0794 11.5978 13.4022 11.63C12.7896 11.6558 12.3833 11.8235 11.9834 12.2298C11.5384 12.6684 11.403 13.0295 11.403 13.7454C11.403 14.2871 11.4223 14.3968 11.5771 14.6805C11.8738 15.2223 12.1704 15.4931 12.6993 15.7188C13.2152 15.9317 13.8859 15.9123 14.4019 15.6737Z" fill="#573CFF"/>
<path d="M0.439864 11.3314C0.0658072 11.1638 -0.0115838 11.009 0.00131472 10.4608C0.0400102 8.94521 0.930007 7.40384 2.2521 6.54608C2.45848 6.41065 2.64551 6.29456 2.65841 6.28167C2.67131 6.27522 2.52942 6.10109 2.34884 5.90116C1.74261 5.23689 1.4395 4.45653 1.4395 3.55363C1.4395 2.53465 1.76196 1.74784 2.47138 1.03842C3.18725 0.322556 3.9805 -0.00635628 5.01238 9.29723e-05C6.50216 9.29723e-05 7.77911 0.896539 8.32085 2.30893C8.52078 2.84421 8.59172 3.74711 8.46918 4.2695C8.34665 4.80479 7.99839 5.48196 7.62433 5.89471C7.44375 6.10109 7.30187 6.27522 7.31477 6.28167C7.32767 6.29456 7.53404 6.42355 7.77266 6.57833C8.64976 7.13942 8.88194 7.62311 8.48208 8.05521C8.12737 8.42927 7.81781 8.40992 7.30832 7.97782C6.70209 7.46188 5.75405 7.10072 4.98659 7.10072C4.13529 7.10072 3.21304 7.47478 2.56812 8.07456C1.8587 8.73883 1.55558 9.36441 1.43305 10.3834C1.35566 11.0154 1.25892 11.2024 0.955804 11.3314C0.691385 11.4411 0.684936 11.4411 0.439864 11.3314ZM5.87013 5.48841C6.32803 5.29493 6.79883 4.78544 6.97941 4.2953C7.28897 3.47624 7.02455 2.43791 6.36673 1.89617C5.25101 0.986829 3.48391 1.43183 2.99377 2.74747C2.80029 3.25697 2.82609 4.01798 3.03891 4.46298C3.20659 4.79834 3.63224 5.25623 3.92246 5.41102C4.51579 5.72058 5.27035 5.75283 5.87013 5.48841Z" fill="#573CFF"/>
<path d="M26.0358 11.325C25.7455 11.2024 25.6488 11.009 25.5714 10.3898C25.4553 9.37731 25.1329 8.73238 24.4428 8.08101C23.7914 7.47478 22.8692 7.10072 22.0179 7.10072C21.2504 7.10072 20.4056 7.41673 19.7413 7.94557C19.5285 8.1197 19.2834 8.28093 19.1995 8.30028C18.7932 8.40347 18.3418 8.04876 18.3418 7.62311C18.3418 7.28775 18.6127 6.97173 19.2318 6.57833C19.4704 6.42355 19.6768 6.29456 19.6897 6.28166C19.7026 6.27522 19.5607 6.10109 19.3801 5.89471C19.0061 5.48196 18.6578 4.80479 18.5353 4.2695C18.4063 3.72131 18.4837 2.84421 18.703 2.27668C19.2447 0.896539 20.541 9.29723e-05 21.9985 9.29723e-05C23.024 -0.00635628 23.8172 0.322555 24.5331 1.03842C25.2425 1.74784 25.565 2.53465 25.565 3.55363C25.565 4.45653 25.2618 5.23689 24.6556 5.90116C24.475 6.10109 24.3332 6.27522 24.3461 6.28166C24.359 6.29456 24.546 6.41065 24.7524 6.54608C26.0745 7.40383 26.9644 8.94521 27.0031 10.4608C27.016 11.0154 26.9387 11.1702 26.5517 11.3314C26.3002 11.4411 26.2937 11.4411 26.0358 11.325ZM22.9272 5.47551C23.6753 5.1337 24.101 4.49522 24.1332 3.65037C24.1655 2.95385 23.9978 2.4895 23.5399 2.03161C22.9788 1.47697 22.063 1.26415 21.302 1.52212C20.2121 1.89617 19.6059 3.19892 20.0186 4.28885C20.2508 4.89508 20.7732 5.39167 21.3923 5.5916C21.7986 5.72703 22.5016 5.67544 22.9272 5.47551Z" fill="#573CFF"/>
</svg>
