<svg width="28" height="28" viewBox="0 0 28 28" fill="none" xmlns="http://www.w3.org/2000/svg">
<g clip-path="url(#clip0_1_1940)">
<path opacity="0.936" fill-rule="evenodd" clip-rule="evenodd" d="M10.5273 -0.0273438C11.5482 -0.0273438 12.569 -0.0273438 13.5898 -0.0273438C17.6246 0.591232 20.6779 2.65113 22.75 6.15234C24.486 9.49348 24.723 12.9388 23.4609 16.4883C23.0243 17.5534 22.4683 18.5469 21.793 19.4688C23.5639 20.8569 25.3503 22.2241 27.1523 23.5703C27.5477 23.9699 27.8211 24.4347 27.9727 24.9648C27.9727 25.3112 27.9727 25.6576 27.9727 26.0039C27.6992 27.043 27.043 27.6992 26.0039 27.9727C25.6576 27.9727 25.3112 27.9727 24.9648 27.9727C24.4347 27.8211 23.9699 27.5477 23.5703 27.1523C22.2241 25.3503 20.8569 23.5639 19.4688 21.793C15.8966 24.3346 12.0228 24.9088 7.84766 23.5156C3.36355 21.6837 0.738555 18.3751 -0.0273438 13.5898C-0.0273438 12.569 -0.0273438 11.5482 -0.0273438 10.5273C0.730751 5.96898 3.20992 2.73331 7.41016 0.820312C8.42598 0.425232 9.46504 0.142681 10.5273 -0.0273438ZM11.0195 0.957031C15.6909 0.726715 19.2729 2.56786 21.7656 6.48047C23.7292 10.1443 23.7657 13.8266 21.875 17.5273C19.4637 21.4999 15.9181 23.4048 11.2383 23.2422C6.82429 22.7181 3.67974 20.4485 1.80469 16.4336C0.228598 12.2189 0.830162 8.35428 3.60938 4.83984C5.59027 2.61435 8.06034 1.32009 11.0195 0.957031ZM11.8945 6.09766C12.1381 6.04937 12.3295 6.12227 12.4688 6.31641C14.2169 9.32974 15.9578 12.3467 17.6914 15.3672C17.6694 15.5251 17.5965 15.6527 17.4727 15.75C13.9576 15.8406 10.4394 15.8588 6.91797 15.8047C6.52072 15.6428 6.43869 15.3785 6.67188 15.0117C8.4134 12.0389 10.1543 9.06752 11.8945 6.09766ZM21.082 20.2617C22.9535 21.6312 24.8038 23.0349 26.6328 24.4727C27.1425 25.2291 27.0969 25.9492 26.4961 26.6328C25.7061 27.1568 24.9679 27.093 24.2812 26.4414C22.9715 24.6759 21.6408 22.9259 20.2891 21.1914C20.4949 20.9299 20.7319 20.6748 21 20.4258C21.0281 20.3696 21.0554 20.3149 21.082 20.2617Z" fill="#4BD8A4"/>
<path opacity="0.934" fill-rule="evenodd" clip-rule="evenodd" d="M11.8945 1.83203C15.527 1.84809 18.4163 3.30643 20.5625 6.20703C22.4284 9.05981 22.8659 12.1223 21.875 15.3945C20.6817 18.7024 18.4122 20.899 15.0664 21.9844C10.8721 23.0468 7.29008 22.0169 4.32028 18.8945C1.79577 15.761 1.17597 12.2793 2.4609 8.44922C3.79145 5.18626 6.15215 3.08079 9.54294 2.13281C10.0989 2.03255 10.3268 2.26041 10.2265 2.81641C10.1627 2.88021 10.0989 2.94401 10.0351 3.00781C6.5961 3.94948 4.30831 6.10963 3.17184 9.48828C2.31257 12.8313 3.00528 15.8027 5.24997 18.4023C8.15535 21.2728 11.5551 22.0658 15.4492 20.7813C18.6336 19.4195 20.575 17.0406 21.2734 13.6445C21.7617 9.49031 20.2577 6.29109 16.7617 4.04688C15.231 3.19934 13.5904 2.76184 11.8398 2.73438C11.5365 2.40799 11.5547 2.10721 11.8945 1.83203ZM11.8945 6.09766C10.1542 9.06752 8.41337 12.0389 6.67184 15.0117C6.43865 15.3785 6.52069 15.6428 6.91794 15.8047C10.4393 15.8588 13.9575 15.8406 17.4726 15.75C17.5964 15.6527 17.6693 15.5251 17.6914 15.3672C15.9578 12.3467 14.2169 9.32974 12.4687 6.31641C12.3295 6.12227 12.1381 6.04937 11.8945 6.09766Z" fill="#4BD8A4"/>
<path opacity="0.936" fill-rule="evenodd" clip-rule="evenodd" d="M12.0039 5.05859C12.5441 5.06888 12.9725 5.28763 13.2891 5.71484C15.0573 8.77734 16.8256 11.8398 18.5938 14.9023C18.8037 15.9126 18.4118 16.5415 17.418 16.7891C13.8633 16.8255 10.3086 16.8255 6.75394 16.7891C5.85346 16.5656 5.46155 15.9914 5.57816 15.0664C5.62967 14.8754 5.70257 14.6931 5.79691 14.5195C7.47401 11.6393 9.15106 8.75913 10.8282 5.87891C11.0872 5.40817 11.479 5.13474 12.0039 5.05859ZM11.8946 6.09766C10.1543 9.06752 8.41343 12.0389 6.67191 15.0117C6.43872 15.3785 6.52075 15.6428 6.918 15.8047C10.4394 15.8588 13.9576 15.8406 17.4727 15.75C17.5965 15.6527 17.6694 15.5251 17.6914 15.3672C15.9578 12.3467 14.217 9.32974 12.4688 6.31641C12.3295 6.12227 12.1381 6.04937 11.8946 6.09766Z" fill="black"/>
<path opacity="0.932" fill-rule="evenodd" clip-rule="evenodd" d="M11.9492 8.34061C12.2398 8.29905 12.4495 8.40843 12.5781 8.66874C12.6146 9.87186 12.6146 11.075 12.5781 12.2781C12.2956 12.6926 11.9857 12.7108 11.6485 12.3328C11.612 11.0932 11.612 9.85365 11.6485 8.61405C11.7431 8.51004 11.8433 8.41887 11.9492 8.34061Z" fill="black"/>
<path opacity="0.901" fill-rule="evenodd" clip-rule="evenodd" d="M11.9492 13.4812C12.2398 13.4397 12.4495 13.5491 12.5781 13.8094C12.6247 14.124 12.6064 14.4339 12.5235 14.7391C12.1906 15.0295 11.8989 14.9931 11.6485 14.6297C11.612 14.338 11.612 14.0463 11.6485 13.7547C11.7253 13.632 11.8256 13.5408 11.9492 13.4812Z" fill="black"/>
<path opacity="0.883" fill-rule="evenodd" clip-rule="evenodd" d="M24.965 24.6908C25.1119 24.6819 25.2577 24.691 25.4025 24.7182C25.7574 24.9352 25.9944 25.236 26.1134 25.6205C26.0648 26.0466 25.8278 26.2016 25.4025 26.0854C25.1564 25.8757 24.9285 25.6479 24.7189 25.4018C24.6302 25.0968 24.7122 24.8598 24.965 24.6908Z" fill="#4BD8A4"/>
</g>
<defs>
<clipPath id="clip0_1_1940">
<rect width="28" height="28" fill="white"/>
</clipPath>
</defs>
</svg>
